<svg width="25" height="24" viewBox="0 0 25 24" fill="none" xmlns="http://www.w3.org/2000/svg">
<path fill-rule="evenodd" clip-rule="evenodd" d="M9.4 2H15.57C18.28 2 20.47 3.07 20.5 5.79V20.97C20.5 21.14 20.46 21.31 20.38 21.46C20.25 21.7 20.03 21.88 19.76 21.96C19.5 22.04 19.21 22 18.97 21.86L12.49 18.62L6 21.86C5.851 21.939 5.68 21.99 5.51 21.99C4.95 21.99 4.5 21.53 4.5 20.97V5.79C4.5 3.07 6.7 2 9.4 2ZM8.72 9.62H16.25C16.68 9.62 17.03 9.269 17.03 8.83C17.03 8.39 16.68 8.04 16.25 8.04H8.72C8.29 8.04 7.94 8.39 7.94 8.83C7.94 9.269 8.29 9.62 8.72 9.62Z" fill="#1B514A"/>
</svg>
