<svg width="20" height="20" viewBox="0 0 20 20" fill="none" xmlns="http://www.w3.org/2000/svg">
<path d="M9.99999 18.3333C7.78925 18.3353 5.66848 17.4579 4.10524 15.8947C2.542 14.3315 1.66467 12.2107 1.66666 9.99996V9.83329C1.73482 6.49347 3.78983 3.51675 6.88863 2.26917C9.98743 1.02159 13.5317 1.74403 15.895 4.10496C18.2804 6.48836 18.9943 10.0744 17.7036 13.1896C16.4129 16.3049 13.372 18.3353 9.99999 18.3333ZM10 11.175L12.1583 13.3333L13.3333 12.1583L11.175 9.99996L13.3333 7.84162L12.1583 6.66662L10 8.82496L7.84166 6.66662L6.66666 7.84162L8.825 9.99996L6.66666 12.1583L7.84166 13.3333L10 11.1758V11.175Z" fill="#CBD5E1"/>
</svg>
