<svg width="25" height="24" viewBox="0 0 25 24" fill="none" xmlns="http://www.w3.org/2000/svg">
<path d="M5.5 5.45988V20.5785C5.5 20.8408 5.71266 21.0535 5.975 21.0535H19.8686C20.131 21.0535 20.3436 20.8408 20.3436 20.5785V5.93488C20.3436 5.67255 20.131 5.45988 19.8686 5.45988H16.1374M5.5 5.45988L15.4868 2.0876C15.7987 1.96347 16.1374 2.19324 16.1374 2.52893V5.45988M5.5 5.45988H16.1374M12.6525 10.2156L11.8564 11.7193C11.8175 11.7929 11.7428 11.8407 11.6597 11.8453L10.1593 11.9286C9.95878 11.9398 9.86174 12.1793 9.99796 12.3269L11.0082 13.4213C11.0546 13.4715 11.0771 13.5393 11.0699 13.6073L10.8903 15.3132C10.8704 15.5023 11.0696 15.6369 11.2376 15.548L12.7478 14.7485C12.8192 14.7107 12.905 14.7118 12.9754 14.7514L14.3348 15.5161C14.5079 15.6134 14.7168 15.4681 14.6859 15.272L14.4259 13.6253C14.4135 13.5472 14.4409 13.4681 14.4988 13.4142L15.6592 12.3368C15.8127 12.1942 15.7199 11.9372 15.5108 11.9256L14.0651 11.8453C13.982 11.8407 13.9073 11.7929 13.8684 11.7193L13.0723 10.2156C12.9831 10.0471 12.7417 10.0471 12.6525 10.2156Z" stroke="#1B514A" stroke-width="1.5"/>
</svg>
