<svg width="18" height="16" viewBox="0 0 18 16" fill="none" xmlns="http://www.w3.org/2000/svg">
<path d="M14.1821 9.9334C13.9663 10.1426 13.8671 10.4451 13.9163 10.7417L14.6571 14.8417C14.7196 15.1892 14.5729 15.5409 14.2821 15.7417C13.9971 15.9501 13.6179 15.9751 13.3071 15.8084L9.61628 13.8834C9.48794 13.8151 9.34544 13.7784 9.19961 13.7742H8.97378C8.89544 13.7859 8.81878 13.8109 8.74878 13.8492L5.05711 15.7834C4.87461 15.8751 4.66794 15.9076 4.46545 15.8751C3.97211 15.7817 3.64294 15.3117 3.72378 14.8159L4.46545 10.7159C4.51461 10.4167 4.41544 10.1126 4.19961 9.90007L1.19045 6.9834C0.938778 6.73924 0.851278 6.37257 0.966278 6.04174C1.07795 5.71174 1.36294 5.4709 1.70711 5.41674L5.84878 4.8159C6.16378 4.7834 6.44044 4.59174 6.58211 4.3084L8.40711 0.566738C8.45044 0.483405 8.50628 0.406738 8.57378 0.341738L8.64878 0.283405C8.68794 0.240071 8.73294 0.204238 8.78294 0.175071L8.87378 0.141738L9.01544 0.0834045H9.36628C9.67961 0.115905 9.95544 0.303405 10.0996 0.583405L11.9488 4.3084C12.0821 4.5809 12.3413 4.77007 12.6404 4.8159L16.7821 5.41674C17.1321 5.46674 17.4246 5.7084 17.5404 6.04174C17.6496 6.3759 17.5554 6.74257 17.2988 6.9834L14.1821 9.9334Z" fill="#FACC15"/>
</svg>
